<mxfile host="app.diagrams.net" agent="Mozilla/5.0 (Windows NT 10.0; Win64; x64) AppleWebKit/537.36 (KHTML, like Gecko) Chrome/127.0.0.0 Safari/537.36 OPR/113.0.0.0" version="24.7.15">
  <diagram name="PÃ¡gina-1" id="IK8X6Yx1eiu6N7QQKSkc">
    <mxGraphModel dx="2466" dy="936" grid="1" gridSize="10" guides="1" tooltips="1" connect="1" arrows="1" fold="1" page="1" pageScale="1" pageWidth="827" pageHeight="1169" math="0" shadow="0">
      <root>
        <mxCell id="0" />
        <mxCell id="1" parent="0" />
        <mxCell id="Lfe0-M2SdLjXuc8p7xmj-1" value="" style="whiteSpace=wrap;html=1;aspect=fixed;" vertex="1" parent="1">
          <mxGeometry x="100" y="100" width="750" height="750" as="geometry" />
        </mxCell>
        <mxCell id="Lfe0-M2SdLjXuc8p7xmj-31" style="edgeStyle=orthogonalEdgeStyle;rounded=0;orthogonalLoop=1;jettySize=auto;html=1;exitX=0.5;exitY=0.5;exitDx=0;exitDy=0;exitPerimeter=0;entryX=0;entryY=0.5;entryDx=0;entryDy=0;endArrow=none;endFill=0;" edge="1" parent="1" source="Lfe0-M2SdLjXuc8p7xmj-2" target="Lfe0-M2SdLjXuc8p7xmj-10">
          <mxGeometry relative="1" as="geometry">
            <Array as="points">
              <mxPoint x="50" y="210" />
            </Array>
          </mxGeometry>
        </mxCell>
        <mxCell id="Lfe0-M2SdLjXuc8p7xmj-32" style="edgeStyle=orthogonalEdgeStyle;rounded=0;orthogonalLoop=1;jettySize=auto;html=1;exitX=0.5;exitY=0.5;exitDx=0;exitDy=0;exitPerimeter=0;entryX=0;entryY=0;entryDx=0;entryDy=0;endArrow=none;endFill=0;" edge="1" parent="1" source="Lfe0-M2SdLjXuc8p7xmj-2" target="Lfe0-M2SdLjXuc8p7xmj-14">
          <mxGeometry relative="1" as="geometry">
            <Array as="points">
              <mxPoint x="50" y="210" />
              <mxPoint x="150" y="210" />
              <mxPoint x="150" y="347" />
            </Array>
          </mxGeometry>
        </mxCell>
        <mxCell id="Lfe0-M2SdLjXuc8p7xmj-2" value="Cliente" style="shape=umlActor;verticalLabelPosition=bottom;verticalAlign=top;html=1;outlineConnect=0;" vertex="1" parent="1">
          <mxGeometry x="-10" y="165" width="40" height="90" as="geometry" />
        </mxCell>
        <mxCell id="Lfe0-M2SdLjXuc8p7xmj-3" value="&lt;font style=&quot;font-size: 18px;&quot;&gt;LogoAli&lt;/font&gt;" style="text;html=1;align=center;verticalAlign=middle;whiteSpace=wrap;rounded=0;" vertex="1" parent="1">
          <mxGeometry x="100" y="100" width="70" height="30" as="geometry" />
        </mxCell>
        <mxCell id="Lfe0-M2SdLjXuc8p7xmj-34" style="edgeStyle=orthogonalEdgeStyle;rounded=0;orthogonalLoop=1;jettySize=auto;html=1;exitX=0.5;exitY=0.5;exitDx=0;exitDy=0;exitPerimeter=0;entryX=0;entryY=1;entryDx=0;entryDy=0;endArrow=none;endFill=0;fillColor=#dae8fc;strokeColor=#6c8ebf;" edge="1" parent="1" source="Lfe0-M2SdLjXuc8p7xmj-4" target="Lfe0-M2SdLjXuc8p7xmj-14">
          <mxGeometry relative="1" as="geometry">
            <Array as="points">
              <mxPoint x="10" y="403" />
            </Array>
          </mxGeometry>
        </mxCell>
        <mxCell id="Lfe0-M2SdLjXuc8p7xmj-4" value="Empresas de Hospedagem" style="shape=umlActor;verticalLabelPosition=bottom;verticalAlign=top;html=1;outlineConnect=0;fillColor=#dae8fc;strokeColor=#6c8ebf;" vertex="1" parent="1">
          <mxGeometry x="-10" y="360" width="40" height="90" as="geometry" />
        </mxCell>
        <mxCell id="Lfe0-M2SdLjXuc8p7xmj-50" style="edgeStyle=orthogonalEdgeStyle;rounded=0;orthogonalLoop=1;jettySize=auto;html=1;exitX=0.5;exitY=0.5;exitDx=0;exitDy=0;exitPerimeter=0;fillColor=#fff2cc;strokeColor=#d6b656;endArrow=none;endFill=0;" edge="1" parent="1" source="Lfe0-M2SdLjXuc8p7xmj-5" target="Lfe0-M2SdLjXuc8p7xmj-47">
          <mxGeometry relative="1" as="geometry">
            <Array as="points">
              <mxPoint x="150" y="565" />
              <mxPoint x="150" y="520" />
            </Array>
          </mxGeometry>
        </mxCell>
        <mxCell id="Lfe0-M2SdLjXuc8p7xmj-60" style="edgeStyle=orthogonalEdgeStyle;rounded=0;orthogonalLoop=1;jettySize=auto;html=1;exitX=0.5;exitY=0.5;exitDx=0;exitDy=0;exitPerimeter=0;entryX=0;entryY=0.5;entryDx=0;entryDy=0;fillColor=#fff2cc;strokeColor=#d6b656;endArrow=none;endFill=0;" edge="1" parent="1" source="Lfe0-M2SdLjXuc8p7xmj-5" target="Lfe0-M2SdLjXuc8p7xmj-44">
          <mxGeometry relative="1" as="geometry">
            <Array as="points">
              <mxPoint x="150" y="565" />
              <mxPoint x="150" y="790" />
            </Array>
          </mxGeometry>
        </mxCell>
        <mxCell id="Lfe0-M2SdLjXuc8p7xmj-5" value="Banco" style="shape=umlActor;verticalLabelPosition=bottom;verticalAlign=top;html=1;outlineConnect=0;fillColor=#fff2cc;strokeColor=#d6b656;" vertex="1" parent="1">
          <mxGeometry x="-10" y="520" width="40" height="90" as="geometry" />
        </mxCell>
        <mxCell id="Lfe0-M2SdLjXuc8p7xmj-10" value="" style="ellipse;whiteSpace=wrap;html=1;" vertex="1" parent="1">
          <mxGeometry x="224" y="170" width="190" height="80" as="geometry" />
        </mxCell>
        <mxCell id="Lfe0-M2SdLjXuc8p7xmj-11" value="Pesquisar Disponibilidades" style="text;html=1;align=center;verticalAlign=middle;whiteSpace=wrap;rounded=0;" vertex="1" parent="1">
          <mxGeometry x="241.5" y="195" width="155" height="30" as="geometry" />
        </mxCell>
        <mxCell id="Lfe0-M2SdLjXuc8p7xmj-35" style="edgeStyle=orthogonalEdgeStyle;rounded=0;orthogonalLoop=1;jettySize=auto;html=1;exitX=0;exitY=0.5;exitDx=0;exitDy=0;entryX=1;entryY=0;entryDx=0;entryDy=0;dashed=1;" edge="1" parent="1" source="Lfe0-M2SdLjXuc8p7xmj-12" target="Lfe0-M2SdLjXuc8p7xmj-14">
          <mxGeometry relative="1" as="geometry">
            <Array as="points">
              <mxPoint x="386" y="270" />
            </Array>
          </mxGeometry>
        </mxCell>
        <mxCell id="Lfe0-M2SdLjXuc8p7xmj-12" value="" style="ellipse;whiteSpace=wrap;html=1;" vertex="1" parent="1">
          <mxGeometry x="490" y="230" width="190" height="80" as="geometry" />
        </mxCell>
        <mxCell id="Lfe0-M2SdLjXuc8p7xmj-13" value="Fazer Login" style="text;html=1;align=center;verticalAlign=middle;whiteSpace=wrap;rounded=0;" vertex="1" parent="1">
          <mxGeometry x="525" y="255" width="120" height="30" as="geometry" />
        </mxCell>
        <mxCell id="Lfe0-M2SdLjXuc8p7xmj-39" style="edgeStyle=orthogonalEdgeStyle;rounded=0;orthogonalLoop=1;jettySize=auto;html=1;exitX=1;exitY=0.5;exitDx=0;exitDy=0;entryX=0;entryY=0.5;entryDx=0;entryDy=0;" edge="1" parent="1" source="Lfe0-M2SdLjXuc8p7xmj-14" target="Lfe0-M2SdLjXuc8p7xmj-20">
          <mxGeometry relative="1" as="geometry" />
        </mxCell>
        <mxCell id="Lfe0-M2SdLjXuc8p7xmj-49" style="edgeStyle=orthogonalEdgeStyle;rounded=0;orthogonalLoop=1;jettySize=auto;html=1;exitX=0;exitY=0.5;exitDx=0;exitDy=0;entryX=0;entryY=0.5;entryDx=0;entryDy=0;dashed=1;" edge="1" parent="1" source="Lfe0-M2SdLjXuc8p7xmj-14" target="Lfe0-M2SdLjXuc8p7xmj-16">
          <mxGeometry relative="1" as="geometry" />
        </mxCell>
        <mxCell id="Lfe0-M2SdLjXuc8p7xmj-14" value="" style="ellipse;whiteSpace=wrap;html=1;" vertex="1" parent="1">
          <mxGeometry x="224" y="335" width="190" height="80" as="geometry" />
        </mxCell>
        <mxCell id="Lfe0-M2SdLjXuc8p7xmj-15" value="Realizar Reservas" style="text;html=1;align=center;verticalAlign=middle;whiteSpace=wrap;rounded=0;" vertex="1" parent="1">
          <mxGeometry x="264" y="360" width="110" height="30" as="geometry" />
        </mxCell>
        <mxCell id="Lfe0-M2SdLjXuc8p7xmj-62" style="edgeStyle=orthogonalEdgeStyle;rounded=0;orthogonalLoop=1;jettySize=auto;html=1;entryX=0;entryY=0.5;entryDx=0;entryDy=0;" edge="1" parent="1" source="Lfe0-M2SdLjXuc8p7xmj-16" target="Lfe0-M2SdLjXuc8p7xmj-24">
          <mxGeometry relative="1" as="geometry" />
        </mxCell>
        <mxCell id="Lfe0-M2SdLjXuc8p7xmj-16" value="" style="ellipse;whiteSpace=wrap;html=1;" vertex="1" parent="1">
          <mxGeometry x="224" y="620" width="190" height="80" as="geometry" />
        </mxCell>
        <mxCell id="Lfe0-M2SdLjXuc8p7xmj-17" value="Cancelar Reservas" style="text;html=1;align=center;verticalAlign=middle;whiteSpace=wrap;rounded=0;" vertex="1" parent="1">
          <mxGeometry x="262.75" y="645" width="112.5" height="30" as="geometry" />
        </mxCell>
        <mxCell id="Lfe0-M2SdLjXuc8p7xmj-63" style="edgeStyle=orthogonalEdgeStyle;rounded=0;orthogonalLoop=1;jettySize=auto;html=1;exitX=0.5;exitY=1;exitDx=0;exitDy=0;entryX=0.5;entryY=0;entryDx=0;entryDy=0;" edge="1" parent="1" source="Lfe0-M2SdLjXuc8p7xmj-20" target="Lfe0-M2SdLjXuc8p7xmj-22">
          <mxGeometry relative="1" as="geometry" />
        </mxCell>
        <mxCell id="Lfe0-M2SdLjXuc8p7xmj-20" value="" style="ellipse;whiteSpace=wrap;html=1;" vertex="1" parent="1">
          <mxGeometry x="490" y="335" width="190" height="80" as="geometry" />
        </mxCell>
        <mxCell id="Lfe0-M2SdLjXuc8p7xmj-21" value="CheckIn" style="text;html=1;align=center;verticalAlign=middle;whiteSpace=wrap;rounded=0;" vertex="1" parent="1">
          <mxGeometry x="555" y="360" width="60" height="30" as="geometry" />
        </mxCell>
        <mxCell id="Lfe0-M2SdLjXuc8p7xmj-43" style="edgeStyle=orthogonalEdgeStyle;rounded=0;orthogonalLoop=1;jettySize=auto;html=1;exitX=0.5;exitY=1;exitDx=0;exitDy=0;entryX=0.5;entryY=0;entryDx=0;entryDy=0;" edge="1" parent="1" source="Lfe0-M2SdLjXuc8p7xmj-22" target="Lfe0-M2SdLjXuc8p7xmj-24">
          <mxGeometry relative="1" as="geometry" />
        </mxCell>
        <mxCell id="Lfe0-M2SdLjXuc8p7xmj-22" value="" style="ellipse;whiteSpace=wrap;html=1;" vertex="1" parent="1">
          <mxGeometry x="490" y="470" width="190" height="80" as="geometry" />
        </mxCell>
        <mxCell id="Lfe0-M2SdLjXuc8p7xmj-23" value="CheckOut" style="text;html=1;align=center;verticalAlign=middle;whiteSpace=wrap;rounded=0;" vertex="1" parent="1">
          <mxGeometry x="555" y="495" width="60" height="30" as="geometry" />
        </mxCell>
        <mxCell id="Lfe0-M2SdLjXuc8p7xmj-24" value="" style="ellipse;whiteSpace=wrap;html=1;" vertex="1" parent="1">
          <mxGeometry x="490" y="620" width="190" height="80" as="geometry" />
        </mxCell>
        <mxCell id="Lfe0-M2SdLjXuc8p7xmj-25" value="Avaliar ExperiÃªncia" style="text;html=1;align=center;verticalAlign=middle;whiteSpace=wrap;rounded=0;" vertex="1" parent="1">
          <mxGeometry x="530" y="645" width="110" height="30" as="geometry" />
        </mxCell>
        <mxCell id="Lfe0-M2SdLjXuc8p7xmj-40" value="&amp;lt;&amp;lt;include&amp;gt;&amp;gt;" style="text;html=1;align=center;verticalAlign=middle;whiteSpace=wrap;rounded=0;" vertex="1" parent="1">
          <mxGeometry x="392.75" y="270" width="60" height="30" as="geometry" />
        </mxCell>
        <mxCell id="Lfe0-M2SdLjXuc8p7xmj-59" style="edgeStyle=orthogonalEdgeStyle;rounded=0;orthogonalLoop=1;jettySize=auto;html=1;exitX=0.5;exitY=0;exitDx=0;exitDy=0;entryX=0.5;entryY=1;entryDx=0;entryDy=0;dashed=1;" edge="1" parent="1" source="Lfe0-M2SdLjXuc8p7xmj-44" target="Lfe0-M2SdLjXuc8p7xmj-16">
          <mxGeometry relative="1" as="geometry" />
        </mxCell>
        <mxCell id="Lfe0-M2SdLjXuc8p7xmj-44" value="" style="ellipse;whiteSpace=wrap;html=1;" vertex="1" parent="1">
          <mxGeometry x="224" y="750" width="190" height="80" as="geometry" />
        </mxCell>
        <mxCell id="Lfe0-M2SdLjXuc8p7xmj-45" value="Estorno" style="text;html=1;align=center;verticalAlign=middle;whiteSpace=wrap;rounded=0;" vertex="1" parent="1">
          <mxGeometry x="262.75" y="775" width="112.5" height="30" as="geometry" />
        </mxCell>
        <mxCell id="Lfe0-M2SdLjXuc8p7xmj-53" style="edgeStyle=orthogonalEdgeStyle;rounded=0;orthogonalLoop=1;jettySize=auto;html=1;exitX=0.5;exitY=0;exitDx=0;exitDy=0;entryX=0.5;entryY=1;entryDx=0;entryDy=0;dashed=1;" edge="1" parent="1" source="Lfe0-M2SdLjXuc8p7xmj-47" target="Lfe0-M2SdLjXuc8p7xmj-14">
          <mxGeometry relative="1" as="geometry" />
        </mxCell>
        <mxCell id="Lfe0-M2SdLjXuc8p7xmj-47" value="" style="ellipse;whiteSpace=wrap;html=1;" vertex="1" parent="1">
          <mxGeometry x="224" y="480" width="190" height="80" as="geometry" />
        </mxCell>
        <mxCell id="Lfe0-M2SdLjXuc8p7xmj-48" value="TransaÃ§Ãµes Financeiras" style="text;html=1;align=center;verticalAlign=middle;whiteSpace=wrap;rounded=0;" vertex="1" parent="1">
          <mxGeometry x="260.38" y="505" width="137.25" height="30" as="geometry" />
        </mxCell>
        <mxCell id="Lfe0-M2SdLjXuc8p7xmj-58" value="&amp;lt;&amp;lt;extend&amp;gt;&amp;gt;" style="text;html=1;align=center;verticalAlign=middle;whiteSpace=wrap;rounded=0;" vertex="1" parent="1">
          <mxGeometry x="330" y="440" width="60" height="30" as="geometry" />
        </mxCell>
        <mxCell id="Lfe0-M2SdLjXuc8p7xmj-61" value="&amp;lt;&amp;lt;extend&amp;gt;&amp;gt;" style="text;html=1;align=center;verticalAlign=middle;whiteSpace=wrap;rounded=0;" vertex="1" parent="1">
          <mxGeometry x="330" y="710" width="60" height="30" as="geometry" />
        </mxCell>
        <mxCell id="Lfe0-M2SdLjXuc8p7xmj-66" style="edgeStyle=orthogonalEdgeStyle;rounded=0;orthogonalLoop=1;jettySize=auto;html=1;exitX=1;exitY=0.5;exitDx=0;exitDy=0;entryX=1;entryY=0.5;entryDx=0;entryDy=0;dashed=1;" edge="1" parent="1" source="Lfe0-M2SdLjXuc8p7xmj-64" target="Lfe0-M2SdLjXuc8p7xmj-12">
          <mxGeometry relative="1" as="geometry" />
        </mxCell>
        <mxCell id="Lfe0-M2SdLjXuc8p7xmj-64" value="" style="ellipse;whiteSpace=wrap;html=1;" vertex="1" parent="1">
          <mxGeometry x="490" y="130" width="190" height="80" as="geometry" />
        </mxCell>
        <mxCell id="Lfe0-M2SdLjXuc8p7xmj-65" value="Cadastro" style="text;html=1;align=center;verticalAlign=middle;whiteSpace=wrap;rounded=0;" vertex="1" parent="1">
          <mxGeometry x="525" y="155" width="120" height="30" as="geometry" />
        </mxCell>
        <mxCell id="Lfe0-M2SdLjXuc8p7xmj-67" value="&amp;lt;&amp;lt;extend&amp;gt;&amp;gt;" style="text;html=1;align=center;verticalAlign=middle;whiteSpace=wrap;rounded=0;" vertex="1" parent="1">
          <mxGeometry x="710" y="210" width="60" height="30" as="geometry" />
        </mxCell>
      </root>
    </mxGraphModel>
  </diagram>
</mxfile>
